<svg height="512pt" viewBox="-46 0 512 512" width="512pt" xmlns="http://www.w3.org/2000/svg"><path d="m420 15v452c0 8.402344-6.597656 15-15 15h-330c-8.402344 0-15-6.597656-15-15v-452c0-8.402344 6.597656-15 15-15h330c8.402344 0 15 6.597656 15 15zm0 0" fill="#80d398"/><path d="m420 15v452c0 8.402344-6.597656 15-15 15h-165v-482h165c8.402344 0 15 6.597656 15 15zm0 0" fill="#5bc980"/><path d="m360 180v317c0 8.402344-6.597656 15-15 15h-330c-8.402344 0-15-6.597656-15-15v-422c0-8.402344 6.597656-15 15-15h225zm0 0" fill="#deecf1"/><path d="m360 180v317c0 8.402344-6.597656 15-15 15h-165v-452h60zm0 0" fill="#c6e2e7"/><path d="m355.605469 154.394531-90-90c-2.8125-2.8125-6.621094-4.394531-10.605469-4.394531h-15v105c0 8.285156 6.714844 15 15 15h105v-15c0-3.984375-1.582031-7.792969-4.394531-10.605469zm0 0" fill="#a8d3d8"/><path d="m270 317c0 8.402344-6.597656 15-15 15s-15-6.597656-15-15c0-36.300781-25.800781-66.597656-60-73.5v163.5c0 8.402344-6.597656 15-15 15s-15-6.597656-15-15v-180c0-8.402344 6.597656-15 15-15 5.097656 0 10.199219.300781 15 1.199219 50.699219 7.203125 90 51 90 103.800781zm0 0" fill="#80d398"/><path d="m270 317c0 8.402344-6.597656 15-15 15s-15-6.597656-15-15c0-36.300781-25.800781-66.597656-60-73.5v-30.300781c50.699219 7.203125 90 51 90 103.800781zm0 0" fill="#5bc980"/><path d="m120 452c-33.648438 0-60-19.761719-60-45s26.351562-45 60-45 60 19.761719 60 45-26.351562 45-60 45zm0 0" fill="#80d398"/></svg>