<svg height="512pt" viewBox="-46 0 512 512" width="512pt" xmlns="http://www.w3.org/2000/svg"><path d="m60 0h360v451h-360zm0 0" fill="#faecd8"/><path d="m240 0h180v451h-180zm0 0" fill="#f8e5ca"/><path d="m360 181v331h-360v-451h240zm0 0" fill="#a0deb0"/><path d="m360 181v331h-180v-451h60zm0 0" fill="#80d398"/><path d="m218.289062 272.582031v86.835938l81.710938 40.855469v-168.546876zm0 0" fill="#3b4a51"/><path d="m291.210938 61h-51.210938v120h120v-51.210938zm0 0" fill="#bee8c9"/><path d="m60 241v150h180v-150zm0 0" fill="#596c76"/><path d="m180 241h60v150h-60zm0 0" fill="#465a61"/></svg>