<svg width="512" height="512" viewBox="0 0 512 512" fill="none" xmlns="http://www.w3.org/2000/svg">
<path d="M456 488H88V24H384L456 96V488Z" fill="#DADCDE"/>
<path d="M384 24V96H456L384 24Z" fill="#E9EEF2"/>
<path d="M120 136H424V440H120V136Z" fill="#6ED2F0"/>
<path d="M56 80H328V192H56V80Z" fill="#5098AD"/>
<path d="M120 440L200 320L280 392L344 256L424 440H120Z" fill="#35A872"/>
<path d="M248 304C265.673 304 280 289.673 280 272C280 254.327 265.673 240 248 240C230.327 240 216 254.327 216 272C216 289.673 230.327 304 248 304Z" fill="#EB423F"/>
<path d="M88 496H456C458.122 496 460.157 495.157 461.657 493.657C463.157 492.157 464 490.122 464 488V96C464 94.9494 463.793 93.9091 463.391 92.9385C462.989 91.9678 462.4 91.0859 461.657 90.343L389.657 18.343C388.914 17.6001 388.032 17.0109 387.062 16.6089C386.091 16.2069 385.051 16 384 16H88C85.8783 16 83.8434 16.8429 82.3431 18.3431C80.8429 19.8434 80 21.8783 80 24V72H56C53.8783 72 51.8434 72.8429 50.3431 74.3431C48.8429 75.8434 48 77.8783 48 80V192C48 194.122 48.8429 196.157 50.3431 197.657C51.8434 199.157 53.8783 200 56 200H80V488C80 490.122 80.8429 492.157 82.3431 493.657C83.8434 495.157 85.8783 496 88 496ZM392 43.313L436.687 88H392V43.313ZM96 32H376V96C376 98.1217 376.843 100.157 378.343 101.657C379.843 103.157 381.878 104 384 104H448V480H96V200H112V440C112 442.122 112.843 444.157 114.343 445.657C115.843 447.157 117.878 448 120 448H424C426.122 448 428.157 447.157 429.657 445.657C431.157 444.157 432 442.122 432 440V136C432 133.878 431.157 131.843 429.657 130.343C428.157 128.843 426.122 128 424 128H336V80C336 77.8783 335.157 75.8434 333.657 74.3431C332.157 72.8429 330.122 72 328 72H96V32ZM336 192V144H416V401.535L351.337 252.81C350.724 251.399 349.716 250.195 348.436 249.343C347.156 248.49 345.657 248.024 344.119 248.001C342.581 247.978 341.069 248.399 339.764 249.214C338.459 250.029 337.417 251.202 336.762 252.594L277.347 378.85L205.352 314.05C204.499 313.282 203.49 312.707 202.394 312.363C201.299 312.02 200.142 311.916 199.003 312.059C197.864 312.202 196.769 312.589 195.792 313.193C194.816 313.797 193.981 314.604 193.344 315.559L128 413.578V200H328C330.122 200 332.157 199.157 333.657 197.657C335.157 196.157 336 194.122 336 192V192ZM411.8 432H134.948L201.524 332.135L274.648 397.946C275.576 398.781 276.686 399.387 277.89 399.716C279.094 400.045 280.358 400.088 281.582 399.841C282.805 399.595 283.954 399.065 284.936 398.295C285.918 397.525 286.707 396.535 287.238 395.406L343.712 275.406L411.8 432ZM64 88H320V184H64V88Z" fill="black"/>
<path d="M248 232C240.089 232 232.355 234.346 225.777 238.741C219.199 243.136 214.072 249.384 211.045 256.693C208.017 264.002 207.225 272.044 208.769 279.804C210.312 287.563 214.122 294.69 219.716 300.284C225.31 305.878 232.437 309.688 240.196 311.231C247.956 312.775 255.998 311.983 263.307 308.955C270.616 305.928 276.864 300.801 281.259 294.223C285.654 287.645 288 279.911 288 272C287.988 261.395 283.77 251.228 276.271 243.729C268.772 236.23 258.605 232.012 248 232V232ZM248 296C243.253 296 238.613 294.592 234.666 291.955C230.72 289.318 227.643 285.57 225.827 281.184C224.01 276.799 223.535 271.973 224.461 267.318C225.387 262.662 227.673 258.386 231.029 255.029C234.386 251.673 238.662 249.387 243.318 248.461C247.973 247.535 252.799 248.01 257.184 249.827C261.57 251.643 265.318 254.72 267.955 258.666C270.592 262.613 272 267.253 272 272C271.993 278.363 269.462 284.463 264.962 288.962C260.463 293.462 254.363 295.993 248 296V296Z" fill="black"/>
<path d="M90.4448 110.836V119.592H101.13V158.282H90.4448V167H122.924V158.282H111.969V119.592H122.924V110.836H90.4448ZM162.238 110.836H148.775V167H158.727V150.375L158.264 125.147L164.861 148.484H170.222L177.59 124.105L177.127 150.375V167H187.079V110.836H173.617L167.561 131.936L162.238 110.836ZM248.419 160.442L248.38 138.301H228.283V146.401H237.579L237.541 156.585C237.258 156.919 236.833 157.241 236.268 157.549C235.728 157.832 235.098 158.089 234.378 158.321C233.658 158.552 232.886 158.732 232.063 158.861C231.24 158.989 230.404 159.054 229.556 159.054C228.167 159.028 226.92 158.809 225.814 158.398C224.734 157.961 223.783 157.331 222.96 156.508C222.471 156.019 222.021 155.466 221.61 154.849C221.224 154.206 220.877 153.512 220.568 152.766C220.079 151.48 219.694 150.002 219.411 148.33C219.154 146.659 219.025 144.807 219.025 142.775V135.061C219.025 133.44 219.115 131.936 219.295 130.547C219.501 129.159 219.784 127.899 220.144 126.767C220.607 125.301 221.185 124.028 221.88 122.948C222.6 121.868 223.397 120.994 224.271 120.325C224.94 119.837 225.66 119.464 226.431 119.207C227.203 118.949 228 118.821 228.823 118.821C230.34 118.821 231.639 119.027 232.719 119.438C233.825 119.824 234.738 120.415 235.458 121.212C236.101 121.932 236.602 122.82 236.962 123.874C237.348 124.928 237.631 126.137 237.811 127.5H248.38C248.097 124.8 247.493 122.37 246.567 120.209C245.667 118.049 244.407 116.211 242.787 114.693C241.167 113.202 239.174 112.057 236.808 111.26C234.468 110.463 231.716 110.064 228.553 110.064C226.496 110.064 224.541 110.347 222.69 110.913C220.838 111.479 219.128 112.315 217.559 113.42C216.222 114.398 214.988 115.555 213.856 116.892C212.75 118.229 211.773 119.734 210.924 121.405C210.024 123.283 209.33 125.378 208.841 127.693C208.353 129.982 208.109 132.463 208.109 135.138V142.775C208.109 145.578 208.353 148.176 208.841 150.567C209.356 152.959 210.102 155.106 211.079 157.009C211.927 158.732 212.956 160.262 214.165 161.6C215.399 162.937 216.762 164.068 218.254 164.994C219.771 165.894 221.429 166.576 223.23 167.039C225.055 167.527 226.997 167.771 229.054 167.771C231.42 167.771 233.632 167.553 235.689 167.116C237.746 166.679 239.611 166.1 241.282 165.38C242.928 164.686 244.355 163.901 245.564 163.027C246.773 162.153 247.724 161.291 248.419 160.442Z" fill="black"/>
</svg>
