<svg width="122" height="122" viewBox="0 0 122 122" fill="none" xmlns="http://www.w3.org/2000/svg">
<rect x="3" y="3" width="116" height="116" fill="#F1EFE9" stroke="black" stroke-width="6"/>
<path d="M43.5 77.5L18.5 56L93.5 46.5L86 114L61.5 93.5L36 122H0L43.5 77.5Z" fill="black"/>
<path d="M25.7011 25.7473V36H22.8806V34.7803C22.4868 35.225 22.0167 35.568 21.4704 35.8094C20.9241 36.0381 20.3333 36.1525 19.6981 36.1525C18.3514 36.1525 17.2842 35.765 16.4965 34.99C15.7088 34.215 15.3149 33.0652 15.3149 31.5406V25.7473H18.2879V31.1023C18.2879 32.7539 18.9803 33.5797 20.3651 33.5797C21.0765 33.5797 21.6483 33.3511 22.0802 32.8937C22.5122 32.4236 22.7282 31.7312 22.7282 30.8165V25.7473H25.7011ZM28.4553 21.8596H31.4282V36H28.4553V21.8596ZM41.5445 35.5045C41.2523 35.7205 40.8902 35.8857 40.4583 36C40.039 36.1016 39.5944 36.1525 39.1243 36.1525C37.9046 36.1525 36.9581 35.8412 36.2848 35.2187C35.6241 34.5961 35.2938 33.6814 35.2938 32.4744V28.2628H33.7121V25.976H35.2938V23.4795H38.2667V25.976H40.8204V28.2628H38.2667V32.4363C38.2667 32.8683 38.3747 33.205 38.5907 33.4463C38.8194 33.675 39.137 33.7894 39.5435 33.7894C40.0136 33.7894 40.4138 33.6623 40.7441 33.4082L41.5445 35.5045ZM46.0529 27.1003C46.4086 26.6048 46.885 26.23 47.4822 25.976C48.092 25.7219 48.7908 25.5948 49.5785 25.5948V28.339C49.2481 28.3136 49.0258 28.3009 48.9115 28.3009C48.0602 28.3009 47.3932 28.5423 46.9105 29.0251C46.4277 29.4952 46.1863 30.2066 46.1863 31.1595V36H43.2134V25.7473H46.0529V27.1003ZM55.4257 25.5948C57.0138 25.5948 58.2335 25.976 59.0847 26.7382C59.9359 27.4878 60.3615 28.6249 60.3615 30.1495V36H57.5792V34.7232C57.0202 35.676 55.9784 36.1525 54.4538 36.1525C53.6661 36.1525 52.9801 36.0191 52.3956 35.7523C51.8239 35.4855 51.3856 35.117 51.0807 34.6469C50.7758 34.1769 50.6233 33.6433 50.6233 33.0461C50.6233 32.0933 50.9791 31.3437 51.6905 30.7974C52.4147 30.2511 53.5264 29.9779 55.0255 29.9779H57.3886C57.3886 29.33 57.1917 28.8345 56.7978 28.4915C56.404 28.1358 55.8132 27.9579 55.0255 27.9579C54.4792 27.9579 53.9393 28.0468 53.4057 28.2247C52.8848 28.3899 52.4401 28.6185 52.0717 28.9108L51.0045 26.8335C51.5635 26.4397 52.2305 26.1348 53.0055 25.9188C53.7932 25.7028 54.5999 25.5948 55.4257 25.5948ZM55.197 34.1515C55.7052 34.1515 56.1562 34.0371 56.5501 33.8084C56.9439 33.567 57.2234 33.2177 57.3886 32.7603V31.7121H55.3495C54.1298 31.7121 53.52 32.1123 53.52 32.9127C53.52 33.2939 53.6661 33.5988 53.9583 33.8275C54.2632 34.0435 54.6761 34.1515 55.197 34.1515Z" fill="black"/>
<path d="M68.9387 36.1914C68.2453 36.1914 67.5849 36.0869 66.9576 35.8777C66.3302 35.6686 65.8404 35.4045 65.4882 35.0853L65.8679 34.4249C66.2201 34.7221 66.6714 34.9697 67.2217 35.1678C67.783 35.3659 68.3664 35.465 68.9718 35.465C69.8413 35.465 70.4797 35.3219 70.8869 35.0357C71.3051 34.7496 71.5143 34.3533 71.5143 33.847C71.5143 33.4838 71.3987 33.1977 71.1676 32.9885C70.9474 32.7794 70.6723 32.6253 70.3421 32.5263C70.0119 32.4272 69.5551 32.3226 68.9718 32.2126C68.2893 32.0915 67.739 31.9594 67.3208 31.8163C66.9025 31.6732 66.5448 31.4421 66.2476 31.1229C65.9505 30.8037 65.8019 30.3635 65.8019 29.8021C65.8019 29.1197 66.0825 28.5584 66.6439 28.1181C67.2162 27.6669 68.0252 27.4412 69.0708 27.4412C69.6211 27.4412 70.166 27.5183 70.7053 27.6724C71.2446 27.8265 71.6849 28.0301 72.0261 28.2832L71.6463 28.9436C71.2941 28.6905 70.8924 28.4979 70.4411 28.3658C69.9899 28.2337 69.5276 28.1677 69.0543 28.1677C68.2508 28.1677 67.6455 28.3163 67.2382 28.6134C66.831 28.9106 66.6274 29.3013 66.6274 29.7856C66.6274 30.1709 66.7429 30.4735 66.9741 30.6937C67.2052 30.9028 67.4859 31.0624 67.8161 31.1725C68.1573 31.2715 68.6306 31.3816 69.2359 31.5026C69.9073 31.6237 70.4466 31.7558 70.8539 31.8989C71.2721 32.031 71.6243 32.2511 71.9105 32.5593C72.1967 32.8675 72.3398 33.2912 72.3398 33.8305C72.3398 34.546 72.0426 35.1183 71.4482 35.5476C70.8539 35.9768 70.0174 36.1914 68.9387 36.1914ZM78.8535 27.4412C79.9322 27.4412 80.7852 27.7549 81.4125 28.3823C82.0399 29.0097 82.3536 29.9122 82.3536 31.0899V36.1254H81.5281V31.1559C81.5281 30.1874 81.2805 29.4499 80.7852 28.9436C80.3009 28.4373 79.6185 28.1842 78.738 28.1842C77.7254 28.1842 76.9274 28.4869 76.344 29.0922C75.7607 29.6976 75.469 30.5121 75.469 31.5357V36.1254H74.6435V23.8751H75.469V29.3068C75.7662 28.7125 76.2065 28.2557 76.7898 27.9365C77.3731 27.6063 78.0611 27.4412 78.8535 27.4412ZM89.1363 36.1914C88.3218 36.1914 87.5844 36.0043 86.924 35.6301C86.2746 35.2559 85.7628 34.7386 85.3886 34.0782C85.0144 33.4068 84.8272 32.6528 84.8272 31.8163C84.8272 30.9798 85.0144 30.2314 85.3886 29.571C85.7628 28.8996 86.2746 28.3768 86.924 28.0026C87.5844 27.6283 88.3218 27.4412 89.1363 27.4412C89.9508 27.4412 90.6827 27.6283 91.3321 28.0026C91.9925 28.3768 92.5098 28.8996 92.884 29.571C93.2583 30.2314 93.4454 30.9798 93.4454 31.8163C93.4454 32.6528 93.2583 33.4068 92.884 34.0782C92.5098 34.7386 91.9925 35.2559 91.3321 35.6301C90.6827 36.0043 89.9508 36.1914 89.1363 36.1914ZM89.1363 35.4485C89.7967 35.4485 90.3855 35.2944 90.9029 34.9862C91.4312 34.678 91.8439 34.2488 92.1411 33.6985C92.4493 33.1481 92.6034 32.5208 92.6034 31.8163C92.6034 31.1119 92.4493 30.4845 92.1411 29.9342C91.8439 29.3839 91.4312 28.9546 90.9029 28.6465C90.3855 28.3383 89.7967 28.1842 89.1363 28.1842C88.4759 28.1842 87.8816 28.3383 87.3532 28.6465C86.8359 28.9546 86.4232 29.3839 86.115 29.9342C85.8178 30.4845 85.6692 31.1119 85.6692 31.8163C85.6692 32.5208 85.8178 33.1481 86.115 33.6985C86.4232 34.2488 86.8359 34.678 87.3532 34.9862C87.8816 35.2944 88.4759 35.4485 89.1363 35.4485ZM108.081 27.5073L104.812 36.1254H104.036L101.13 28.6465L98.2079 36.1254H97.4485L94.1795 27.5073H94.972L97.8447 35.2008L100.783 27.5073H101.493L104.416 35.1843L107.321 27.5073H108.081Z" fill="black"/>
</svg>
