<svg width="63" height="46" viewBox="0 0 63 46" fill="none" xmlns="http://www.w3.org/2000/svg">
<path d="M32.0938 45L40 35.1481L38 33L29 45H32.0938Z" fill="black" stroke="black"/>
<path d="M47.9062 45L40 35.1481L41.5 32.5L51 45H47.9062Z" fill="black" stroke="black"/>
<rect x="18" y="2" width="43" height="31" rx="6" stroke="black" stroke-width="4"/>
<path d="M40.0607 19.0607C40.6464 18.4749 40.6464 17.5251 40.0607 16.9393L30.5147 7.3934C29.9289 6.80761 28.9792 6.80761 28.3934 7.3934C27.8076 7.97918 27.8076 8.92893 28.3934 9.51472L36.8787 18L28.3934 26.4853C27.8076 27.0711 27.8076 28.0208 28.3934 28.6066C28.9792 29.1924 29.9289 29.1924 30.5147 28.6066L40.0607 19.0607ZM0 19.5L39 19.5V16.5L0 16.5L0 19.5Z" fill="black"/>
</svg>
