<svg width="512" height="512" viewBox="0 0 512 512" fill="none" xmlns="http://www.w3.org/2000/svg">
<rect width="512" height="512" fill="#F1EFE9"/>
<path d="M182.557 325.246L77.6394 235.016L392.393 195.148L360.918 478.426L258.098 392.393L151.082 512H0L182.557 325.246Z" fill="url(#paint0_linear)"/>
<rect x="12.5902" y="12.5902" width="486.82" height="486.82" stroke="black" stroke-width="25.1803"/>
<path d="M82.8338 102.409H96.3691V114.179H83.2262V154H67.9254V114.179H59.7847V102.409H67.9254V100.055C67.9254 94.0394 69.6909 89.2661 73.2218 85.7352C76.8182 82.2042 81.853 80.4388 88.3264 80.4388C90.615 80.4388 92.7728 80.7003 94.7998 81.2234C96.8922 81.6811 98.625 82.3677 99.9981 83.2831L95.9768 94.3664C94.2113 93.124 92.1516 92.5028 89.7976 92.5028C85.1551 92.5028 82.8338 95.0529 82.8338 100.153V102.409ZM111.866 101.232H127.167V154H111.866V101.232ZM119.516 93.8759C116.705 93.8759 114.416 93.0586 112.651 91.4239C110.885 89.7892 110.002 87.7622 110.002 85.3428C110.002 82.9235 110.885 80.8965 112.651 79.2618C114.416 77.6271 116.705 76.8097 119.516 76.8097C122.328 76.8097 124.617 77.5944 126.382 79.1637C128.148 80.733 129.03 82.6946 129.03 85.0486C129.03 87.5987 128.148 89.7238 126.382 91.4239C124.617 93.0586 122.328 93.8759 119.516 93.8759ZM141.347 81.2234H156.648V154H141.347V81.2234ZM222.537 127.812C222.537 128.008 222.439 129.382 222.243 131.932H182.324C183.043 135.201 184.743 137.784 187.424 139.68C190.105 141.576 193.44 142.524 197.428 142.524C200.175 142.524 202.594 142.132 204.686 141.347C206.844 140.497 208.839 139.19 210.669 137.424L218.81 146.252C213.841 151.94 206.583 154.785 197.036 154.785C191.086 154.785 185.822 153.64 181.245 151.352C176.668 148.998 173.137 145.761 170.652 141.642C168.167 137.522 166.925 132.847 166.925 127.616C166.925 122.45 168.135 117.808 170.554 113.688C173.039 109.504 176.406 106.267 180.656 103.978C184.972 101.624 189.778 100.447 195.074 100.447C200.24 100.447 204.915 101.559 209.1 103.782C213.285 106.005 216.554 109.209 218.908 113.394C221.328 117.514 222.537 122.32 222.537 127.812ZM195.173 112.021C191.707 112.021 188.797 113.002 186.443 114.964C184.089 116.925 182.651 119.606 182.128 123.006H208.119C207.596 119.671 206.158 117.023 203.804 115.062C201.45 113.035 198.573 112.021 195.173 112.021Z" fill="black"/>
<path d="M258.282 108.569C262.417 108.569 266.156 109.532 269.498 111.458C272.84 113.384 275.446 116.046 277.315 119.445C279.241 122.844 280.204 126.724 280.204 131.086C280.204 135.448 279.241 139.357 277.315 142.812C275.446 146.211 272.84 148.873 269.498 150.8C266.156 152.669 262.417 153.604 258.282 153.604C254.373 153.604 250.833 152.697 247.66 150.884C244.488 149.015 242.024 146.438 240.268 143.152V169.748H236.019V108.909H240.098V119.36C241.854 115.961 244.318 113.327 247.49 111.458C250.719 109.532 254.316 108.569 258.282 108.569ZM258.027 149.78C261.426 149.78 264.485 148.987 267.204 147.401C269.923 145.815 272.047 143.605 273.577 140.773C275.163 137.94 275.956 134.712 275.956 131.086C275.956 127.461 275.163 124.232 273.577 121.399C272.047 118.567 269.923 116.358 267.204 114.772C264.485 113.186 261.426 112.392 258.027 112.392C254.628 112.392 251.569 113.186 248.85 114.772C246.187 116.358 244.063 118.567 242.477 121.399C240.948 124.232 240.183 127.461 240.183 131.086C240.183 134.712 240.948 137.94 242.477 140.773C244.063 143.605 246.187 145.815 248.85 147.401C251.569 148.987 254.628 149.78 258.027 149.78ZM308.147 108.569C313.642 108.569 317.862 109.985 320.808 112.817C323.754 115.593 325.227 119.7 325.227 125.138V153.264H321.148V145.361C319.732 147.967 317.664 150.006 314.945 151.479C312.226 152.895 308.969 153.604 305.173 153.604C300.245 153.604 296.336 152.442 293.447 150.12C290.615 147.797 289.199 144.738 289.199 140.943C289.199 137.261 290.502 134.287 293.107 132.021C295.77 129.698 299.99 128.537 305.768 128.537H320.978V124.968C320.978 120.833 319.845 117.689 317.579 115.536C315.37 113.384 312.113 112.307 307.807 112.307C304.862 112.307 302.029 112.817 299.31 113.837C296.648 114.857 294.382 116.216 292.513 117.916L290.388 114.857C292.598 112.874 295.26 111.344 298.376 110.268C301.491 109.135 304.748 108.569 308.147 108.569ZM305.768 150.12C309.45 150.12 312.566 149.27 315.115 147.571C317.721 145.871 319.675 143.407 320.978 140.178V131.851H305.853C301.491 131.851 298.319 132.644 296.336 134.23C294.41 135.816 293.447 137.997 293.447 140.773C293.447 143.662 294.524 145.956 296.676 147.656C298.829 149.298 301.859 150.12 305.768 150.12ZM346.81 118.595C348.169 115.366 350.294 112.902 353.183 111.203C356.072 109.447 359.584 108.569 363.719 108.569V112.732L362.7 112.647C357.771 112.647 353.919 114.205 351.143 117.321C348.368 120.38 346.98 124.657 346.98 130.151V153.264H342.731V108.909H346.81V118.595ZM399.424 150.46C398.348 151.479 396.989 152.272 395.346 152.839C393.76 153.349 392.089 153.604 390.333 153.604C386.48 153.604 383.506 152.556 381.411 150.46C379.315 148.307 378.267 145.333 378.267 141.538V112.562H370.109V108.909H378.267V99.2219H382.515V108.909H396.62V112.562H382.515V141.113C382.515 144.002 383.195 146.211 384.554 147.741C385.971 149.213 388.038 149.95 390.757 149.95C393.533 149.95 395.827 149.128 397.64 147.486L399.424 150.46ZM446.046 108.909L423.274 159.297C421.574 163.205 419.591 165.981 417.326 167.624C415.116 169.267 412.482 170.088 409.423 170.088C407.384 170.088 405.458 169.748 403.645 169.068C401.889 168.389 400.388 167.397 399.142 166.094L401.266 162.865C403.532 165.188 406.279 166.349 409.508 166.349C411.661 166.349 413.502 165.754 415.031 164.565C416.561 163.375 417.977 161.336 419.28 158.447L421.659 153.094L401.691 108.909H406.194L423.953 148.59L441.712 108.909H446.046Z" fill="black"/>
<defs>
<linearGradient id="paint0_linear" x1="196.197" y1="195.148" x2="196.197" y2="512" gradientUnits="userSpaceOnUse">
<stop stop-color="#00B9C5"/>
<stop offset="1" stop-color="#F569F8"/>
</linearGradient>
</defs>
</svg>
